<svg width="75" height="31" viewBox="0 0 75 31" fill="none" xmlns="http://www.w3.org/2000/svg">
<path d="M8.692 30.396C7.396 30.396 6.232 30.288 5.2 30.072C4.168 29.856 3.016 29.568 1.744 29.208C0.904002 28.968 0.340002 28.836 0.052002 28.812L0.376002 22.152H3.292L4.084 26.796C4.396 27.132 4.948 27.432 5.74 27.696C6.556 27.96 7.48 28.092 8.512 28.092C10.12 28.092 11.32 27.744 12.112 27.048C12.928 26.328 13.336 25.332 13.336 24.06C13.336 23.22 13.096 22.5 12.616 21.9C12.136 21.276 11.476 20.724 10.636 20.244C9.796 19.74 8.644 19.164 7.18 18.516C5.188 17.604 3.532 16.524 2.212 15.276C0.916002 14.004 0.268002 12.288 0.268002 10.128C0.268002 8.78398 0.616002 7.57198 1.312 6.49198C2.008 5.38798 3.04 4.52398 4.408 3.89998C5.8 3.25198 7.492 2.92798 9.484 2.92798C10.66 2.92798 11.692 3.01198 12.58 3.17998C13.492 3.34798 14.476 3.57598 15.532 3.86398C16.156 4.03198 16.624 4.13998 16.936 4.18798L16.72 10.488H13.84L13.084 6.05998C12.868 5.84398 12.436 5.63998 11.788 5.44798C11.14 5.23198 10.42 5.12398 9.628 5.12398C8.188 5.12398 7.096 5.45998 6.352 6.13198C5.632 6.77998 5.272 7.65598 5.272 8.75998C5.272 9.64798 5.536 10.416 6.064 11.064C6.616 11.712 7.276 12.264 8.044 12.72C8.812 13.152 10.024 13.776 11.68 14.592C13.024 15.24 14.176 15.876 15.136 16.5C16.096 17.124 16.924 17.94 17.62 18.948C18.316 19.932 18.664 21.096 18.664 22.44C18.664 23.76 18.328 25.02 17.656 26.22C17.008 27.42 15.928 28.416 14.416 29.208C12.928 30 11.02 30.396 8.692 30.396Z" fill="black"/>
<path d="M20.9154 24.384C20.9154 22.2 22.0074 20.556 24.1914 19.452C26.3994 18.348 29.2434 17.784 32.7234 17.76V16.932C32.7234 15.948 32.6154 15.18 32.3994 14.628C32.2074 14.076 31.8354 13.668 31.2834 13.404C30.7554 13.116 29.9754 12.972 28.9434 12.972C27.7674 12.972 26.7114 13.128 25.7754 13.44C24.8394 13.728 23.8674 14.112 22.8594 14.592L21.7434 12.288C22.1034 11.976 22.7034 11.604 23.5434 11.172C24.4074 10.74 25.4274 10.368 26.6034 10.056C27.7794 9.71998 28.9914 9.55198 30.2394 9.55198C32.0874 9.55198 33.5274 9.79198 34.5594 10.272C35.6154 10.752 36.3714 11.52 36.8274 12.576C37.2834 13.632 37.5114 15.048 37.5114 16.824V27.84H39.4554V29.856C38.9754 29.976 38.2914 30.096 37.4034 30.216C36.5154 30.336 35.7354 30.396 35.0634 30.396C34.2474 30.396 33.6954 30.276 33.4074 30.036C33.1434 29.796 33.0114 29.304 33.0114 28.56V27.588C32.3634 28.308 31.5234 28.956 30.4914 29.532C29.4594 30.108 28.2954 30.396 26.9994 30.396C25.8954 30.396 24.8754 30.168 23.9394 29.712C23.0274 29.232 22.2954 28.548 21.7434 27.66C21.1914 26.748 20.9154 25.656 20.9154 24.384ZM29.3034 27.408C29.8074 27.408 30.3834 27.264 31.0314 26.976C31.6794 26.664 32.2434 26.292 32.7234 25.86V19.956C30.5634 19.956 28.9434 20.328 27.8634 21.072C26.8074 21.792 26.2794 22.728 26.2794 23.88C26.2794 25.032 26.5434 25.908 27.0714 26.508C27.6234 27.108 28.3674 27.408 29.3034 27.408Z" fill="black"/>
<path d="M45.986 6.70798C45.122 6.70798 44.438 6.45598 43.934 5.95198C43.43 5.44798 43.178 4.79998 43.178 4.00798C43.178 3.09598 43.466 2.33998 44.042 1.73998C44.618 1.13998 45.386 0.83998 46.346 0.83998C47.306 0.83998 48.038 1.10398 48.542 1.63198C49.046 2.13598 49.298 2.77198 49.298 3.53998C49.298 4.49998 49.01 5.26798 48.434 5.84398C47.858 6.41998 47.054 6.70798 46.022 6.70798H45.986ZM44.078 13.404L41.522 12.72V10.308L48.11 9.51598H48.182L49.19 10.236V27.552L51.602 27.84V30H41.558V27.84L44.078 27.516V13.404Z" fill="black"/>
<path d="M61.7065 30.396C60.2185 30.396 58.8865 30.048 57.7105 29.352C56.5345 28.632 55.5985 27.528 54.9025 26.04C54.2065 24.552 53.8585 22.692 53.8585 20.46C53.8585 18.444 54.2665 16.608 55.0825 14.952C55.9225 13.272 57.1465 11.94 58.7545 10.956C60.3625 9.97198 62.2945 9.47998 64.5505 9.47998C65.4625 9.47998 66.3265 9.57598 67.1425 9.76798V3.68398L63.6145 3.17998V1.19998L71.0305 0.47998H71.1385L72.1465 1.23598V27.804H74.0905V29.856C72.3625 30.216 70.9345 30.396 69.8065 30.396C69.0385 30.396 68.4865 30.264 68.1505 30C67.8385 29.76 67.6825 29.268 67.6825 28.524V27.516C67.0585 28.356 66.2065 29.052 65.1265 29.604C64.0465 30.132 62.9065 30.396 61.7065 30.396ZM63.5785 27.408C64.3705 27.408 65.0665 27.252 65.6665 26.94C66.2905 26.604 66.7825 26.208 67.1425 25.752V12.648C66.9745 12.408 66.6145 12.204 66.0625 12.036C65.5345 11.868 64.9585 11.784 64.3345 11.784C62.7985 11.784 61.5625 12.456 60.6265 13.8C59.7145 15.12 59.2585 17.244 59.2585 20.172C59.2585 22.62 59.6545 24.444 60.4465 25.644C61.2385 26.82 62.2825 27.408 63.5785 27.408Z" fill="black"/>
</svg>
